<?xml version="1.0" encoding="UTF-8"?>
<svg id="_圖層_1" data-name="圖層 1" xmlns="http://www.w3.org/2000/svg" viewBox="0 0 960 540">
  <defs>
    <style>
      .cls-1 {
        fill: #c78a03;
      }
    </style>
  </defs>
  <path class="cls-1" d="m517.51,213.9c4.18,1.01,8.21,1.98,12.65,3.05.76-1.57,1.59-3.15,2.31-4.79,23.35-52.87,46.72-105.74,70-158.64,2.62-5.95,6.09-10.77,12.87-11.98,6.22-1.11,11.6.71,15.55,5.74,3.92,5,4.58,10.6,2.04,16.44-4.64,10.66-9.37,21.28-14.07,31.92-18.92,42.85-37.83,85.7-56.75,128.54-.66,1.5-1.28,3.02-2.04,4.82,45.57,27.58,71.59,67.41,74.03,120.85,1.87,41.07-12.41,76.7-41.12,106.19-55.65,57.16-148.88,56.89-204.81.18-64.72-65.61-51.36-175.9,23.96-222.02-2.35-4.71-4.71-9.45-7.08-14.19-25.57-51.13-51.11-102.26-76.74-153.36-2.33-4.65-3.67-9.34-2-14.38,1.99-6.02,6.2-9.82,12.53-10.79,6.68-1.03,12.13,1.3,15.95,6.96,1.2,1.78,2.07,3.78,3.04,5.71,26.91,53.78,53.82,107.56,80.73,161.34.74,1.47,1.53,2.92,2.05,3.91,13.35-2.84,26.39-5.62,39.7-8.45-.62-1.37-1.38-3.17-2.24-4.92-22.57-46.28-45.16-92.56-67.73-138.85-.94-1.94-1.99-3.88-2.54-5.94-2.14-8.1,2.02-16.05,9.74-19,7.84-2.99,16.12.23,20.1,8.25,9.74,19.65,19.29,39.38,28.91,59.09,16.25,33.29,32.5,66.58,48.76,99.87.73,1.49,1.47,2.96,2.2,4.43Zm-26.86,253.06c61.79-.06,111.73-49.94,111.77-111.65.04-61.6-49.98-111.74-111.66-111.92-61.7-.18-112.12,50.26-112.02,112.05.1,61.69,50.16,111.58,111.91,111.52Z"/>
  <path class="cls-1" d="m556.69,58.64c-.26.99-.58,3.32-1.45,5.43-7.2,17.47-14.42,34.94-21.81,52.34-2.97,6.99-9.81,10.77-16.8,9.82-6.95-.95-12.58-6.19-13.59-13.32-.38-2.68-.14-5.78.86-8.26,7.35-18.13,14.83-36.21,22.57-54.17,3.13-7.26,10.63-10.57,18.16-8.85,7.12,1.63,12.14,8.16,12.06,17.02Z"/>
</svg>